<svg width="18" height="18" viewBox="0 0 18 18" fill="none" xmlns="http://www.w3.org/2000/svg">
<path d="M4.5 9.00156C4.5 9.49862 4.90294 9.90157 5.4 9.90157C5.89706 9.90157 6.3 9.49862 6.3 9.00156C6.3 8.50451 5.89706 8.10156 5.4 8.10156C4.90294 8.10156 4.5 8.50451 4.5 9.00156Z" fill="#ABB7CA"/>
<path d="M8.10156 9.00156C8.10156 9.49862 8.50451 9.90157 9.00156 9.90157C9.49862 9.90157 9.90157 9.49862 9.90157 9.00156C9.90157 8.50451 9.49862 8.10156 9.00156 8.10156C8.50451 8.10156 8.10156 8.50451 8.10156 9.00156Z" fill="#ABB7CA"/>
<path d="M11.6992 9.00156C11.6992 9.49862 12.1022 9.90157 12.5992 9.90157C13.0963 9.90157 13.4992 9.49862 13.4992 9.00156C13.4992 8.50451 13.0963 8.10156 12.5992 8.10156C12.1022 8.10156 11.6992 8.50451 11.6992 9.00156Z" fill="#ABB7CA"/>
<path d="M4.5 12.5992C4.5 13.0963 4.90294 13.4992 5.4 13.4992C5.89706 13.4992 6.3 13.0963 6.3 12.5992C6.3 12.1022 5.89706 11.6992 5.4 11.6992C4.90294 11.6992 4.5 12.1022 4.5 12.5992Z" fill="#ABB7CA"/>
<path d="M8.10156 12.5992C8.10156 13.0963 8.50451 13.4992 9.00156 13.4992C9.49862 13.4992 9.90157 13.0963 9.90157 12.5992C9.90157 12.1022 9.49862 11.6992 9.00156 11.6992C8.50451 11.6992 8.10156 12.1022 8.10156 12.5992Z" fill="#ABB7CA"/>
<path d="M11.6992 12.5992C11.6992 13.0963 12.1022 13.4992 12.5992 13.4992C13.0963 13.4992 13.4992 13.0963 13.4992 12.5992C13.4992 12.1022 13.0963 11.6992 12.5992 11.6992C12.1022 11.6992 11.6992 12.1022 11.6992 12.5992Z" fill="#ABB7CA"/>
<path d="M17.1 1.8H15.3V0.9C15.3 0.36 14.94 0 14.4 0C13.86 0 13.5 0.36 13.5 0.9V1.8H4.5V0.9C4.5 0.36 4.14 0 3.6 0C3.06 0 2.7 0.36 2.7 0.9V1.8H0.9C0.36 1.8 0 2.16 0 2.7V17.1C0 17.64 0.36 18 0.9 18H17.1C17.55 18 18 17.64 18 17.1V2.7C18 2.16 17.55 1.8 17.1 1.8ZM16.2 16.2H1.8V5.4H16.2V16.2Z" fill="#ABB7CA"/>
</svg>
