<svg width="26" height="22" viewBox="0 0 26 22" fill="none" xmlns="http://www.w3.org/2000/svg">
<path d="M21.6627 7.36448C20.461 2.57744 15.6063 -0.329057 10.8193 0.8726C7.07834 1.8117 4.36199 5.04494 4.08212 8.89176C1.42589 9.3298 -0.372331 11.8382 0.0657104 14.4944C0.455109 16.8558 2.50127 18.5852 4.89453 18.5757H8.14417C8.59286 18.5757 8.95659 18.212 8.95659 17.7633C8.95659 17.3146 8.59286 16.9509 8.14417 16.9509H4.89453C3.09981 16.9509 1.64489 15.4959 1.64489 13.7012C1.64489 11.9065 3.09981 10.4516 4.89453 10.4516C5.34323 10.4516 5.70694 10.0879 5.70694 9.63918C5.70288 5.60104 8.97319 2.32418 13.0113 2.32016C16.5069 2.31666 19.516 4.78791 20.1922 8.21746C20.259 8.55989 20.5369 8.82148 20.8828 8.86739C23.1038 9.18367 24.6478 11.2405 24.3316 13.4615C24.0476 15.4559 22.3448 16.9408 20.3303 16.9509H17.8931C17.4444 16.9509 17.0807 17.3146 17.0807 17.7633C17.0807 18.212 17.4444 18.5757 17.8931 18.5757H20.3303C23.4711 18.5662 26.0095 16.0124 26 12.8716C25.992 10.2572 24.2025 7.9849 21.6627 7.36448Z" fill="#202E55"/>
<path d="M12.4411 10.6894L9.76478 13.3657C9.44812 13.6823 9.44812 14.1957 9.76478 14.5124C10.081 14.8286 10.5934 14.8291 10.9103 14.5136L12.2055 13.2241V20.2027C12.2055 20.6514 12.5692 21.0151 13.0179 21.0151C13.4665 21.0151 13.8303 20.6514 13.8303 20.2027V13.2241L15.1179 14.5118C15.4343 14.8281 15.9471 14.8281 16.2634 14.5118C16.5798 14.1955 16.5798 13.6826 16.2634 13.3663L13.5866 10.6894C13.2697 10.3744 12.7579 10.3744 12.4411 10.6894Z" fill="#202E55"/>
</svg>
