<svg width="15" height="15" viewBox="0 0 15 15" fill="none" xmlns="http://www.w3.org/2000/svg">
<path d="M7.5 0C3.3544 0 0 3.3547 0 7.5C0 11.6456 3.3547 15 7.5 15C11.6456 15 15 11.6453 15 7.5C15 3.3544 11.6453 0 7.5 0ZM7.5 13.8281C4.00216 13.8281 1.17188 10.9976 1.17188 7.5C1.17188 4.00216 4.00239 1.17188 7.5 1.17188C10.9978 1.17188 13.8281 4.00239 13.8281 7.5C13.8281 10.9978 10.9976 13.8281 7.5 13.8281Z" fill="#596D8C"/>
<path d="M7.5 3.77734C7.17639 3.77734 6.91406 4.03967 6.91406 4.36328V8.1365C6.91406 8.46011 7.17639 8.72244 7.5 8.72244C7.82361 8.72244 8.08594 8.46011 8.08594 8.1365V4.36328C8.08594 4.03967 7.82361 3.77734 7.5 3.77734Z" fill="#596D8C"/>
<path d="M7.50195 11.0195C7.93882 11.0195 8.29297 10.6654 8.29297 10.2285C8.29297 9.79165 7.93882 9.4375 7.50195 9.4375C7.06509 9.4375 6.71094 9.79165 6.71094 10.2285C6.71094 10.6654 7.06509 11.0195 7.50195 11.0195Z" fill="#596D8C"/>
</svg>
