<svg xmlns="http://www.w3.org/2000/svg" fill="none" viewBox="0 0 453 85"><path stroke="#E2001A" stroke-width="5" d="M54.1 28.3a25.8 25.8 0 1 1-51.6 0 25.8 25.8 0 0 1 51.6 0Z"></path><path stroke="#E2001A" stroke-width="5" d="M54.1 56.7a25.8 25.8 0 1 1-51.6 0 25.8 25.8 0 0 1 51.6 0Z"></path><path fill="#121007" d="M85.5 61.7V20.5h8l32.4 31.7V20.5h7.1v41.2h-7.9L92.7 29.2v32.5h-7.2Z"></path><path fill="#121007" fill-rule="evenodd" d="M164.7 64.9a23.8 23.8 0 1 0 0-47.6 23.8 23.8 0 0 0 0 47.6Zm0-6.4a17.4 17.4 0 1 0 0-34.8 17.4 17.4 0 0 0 0 34.8Z" clip-rule="evenodd"></path><path fill="#121007" d="m216.2 61.7-28.5-41.2h8.7l23.8 34.9 23.7-35h8.7l-28.5 41.3h-7.9ZM268.5 20.5l27.7 41.2h-8.7l-23-34-23 34h-8.7l27.8-41.2h7.9ZM286.7 27.6v-7.1h41.2v7.1h-17.5v34h-7v-34h-16.7ZM334.2 39V20.5h7.1V39c0 13.4 11.1 18.4 17.5 18.4v7.5c-19-.7-24.3-17.6-24.6-25.9ZM383.3 39V20.5h-7.1V39c0 13.3-11.1 18.4-17.4 18.4v7.5c19-.7 24.2-17.6 24.5-25.9ZM391.2 61.7V20.5h7.2L422 55.4l23-35h7.9v41.3h-6.3V32.4L426 61.7h-8l-20.5-29.3v29.3h-6.4Z"></path></svg>